<?xml version="1.0" encoding="UTF-8"?>
<svg id="Layer_2" data-name="Layer 2" xmlns="http://www.w3.org/2000/svg" viewBox="0 0 86.39 123.5">
  <defs>
    <style>
      .cls-1 {
        fill: #ea4435;
      }

      .cls-2 {
        fill: #547dbf;
      }

      .cls-3 {
        fill: #33a852;
      }

      .cls-4 {
        fill: #f9bc15;
      }
    </style>
  </defs>
  <g id="Layer_1-2" data-name="Layer 1">
    <path class="cls-2" d="M43.22,80.28c10.25,0,18.52-8.09,18.52-18.34V18.59C61.75,8.34,53.48,0,43.22,0S24.7,8.27,24.7,18.59V61.94c0,10.25,8.27,18.34,18.52,18.34Z"/>
    <path class="cls-3" d="M37.05,99.29h12.35v24.21h-12.35v-24.21Z"/>
    <path class="cls-4" d="M12.66,91.82C4.82,83.61,0,74.35,0,61.75H12.35c0,8.95,3.46,14.94,9.08,20.87v1.98l-7.1,7.29-1.67-.06Z"/>
    <path class="cls-1" d="M43.22,92.19c-8.2,.02-16.08-3.42-21.86-9.57l-8.71,9.2c7.78,8.27,18.65,13.15,30.57,13.15,23.9,0,43.16-18.03,43.16-43.22h-12.29c0,18.03-13.83,30.44-30.87,30.44Z"/>
  </g>
</svg>